<?xml version="1.0" encoding="utf-8"?>
<!-- Generator: Adobe Illustrator 25.4.1, SVG Export Plug-In . SVG Version: 6.00 Build 0)  -->
<svg version="1.1" id="Layer_1" focusable="false" xmlns="http://www.w3.org/2000/svg" xmlns:xlink="http://www.w3.org/1999/xlink"
	 x="0px" y="0px" viewBox="0 0 512 512" style="enable-background:new 0 0 512 512;" xml:space="preserve">
<style type="text/css">
	.st0{fill:#FFFFFF;}
</style>
<path class="st0" d="M256,32C114.6,32,0,125.1,0,240c0,49.6,21.4,95,57,130.7C44.5,421.1,2.7,466,2.2,466.5
	c-2.2,2.3-2.8,5.7-1.5,8.7S4.8,480,8,480c66.3,0,116-31.8,140.6-51.4c32.7,12.3,69,19.4,107.4,19.4c141.4,0,256-93.1,256-208
	S397.4,32,256,32z M128.2,304H116c-4.4,0-8-3.6-8-8v-16c0-4.4,3.6-8,8-8h12.3c6,0,10.4-3.5,10.4-6.6c0-1.3-0.8-2.7-2.1-3.8
	l-21.9-18.8c-8.5-7.2-13.3-17.5-13.3-28.1c0-21.3,19-38.6,42.4-38.6H156c4.4,0,8,3.6,8,8v16c0,4.4-3.6,8-8,8h-12.3
	c-6,0-10.4,3.5-10.4,6.6c0,1.3,0.8,2.7,2.1,3.8l21.9,18.8c8.5,7.2,13.3,17.5,13.3,28.1C170.7,286.7,151.6,304,128.2,304L128.2,304z
	 M320,296c0,4.4-3.6,8-8,8h-16c-4.4,0-8-3.6-8-8v-68.2l-24.8,55.8c-2.9,5.9-11.4,5.9-14.3,0L224,227.8V296c0,4.4-3.6,8-8,8h-16
	c-4.4,0-8-3.6-8-8V192c0-8.8,7.2-16,16-16h16c6.1,0,11.6,3.4,14.3,8.8l17.7,35.4l17.7-35.4c2.7-5.4,8.3-8.8,14.3-8.8h16
	c8.8,0,16,7.2,16,16V296z M368.3,304H356c-4.4,0-8-3.6-8-8v-16c0-4.4,3.6-8,8-8h12.3c6,0,10.4-3.5,10.4-6.6c0-1.3-0.8-2.7-2.1-3.8
	l-21.9-18.8c-8.5-7.2-13.3-17.5-13.3-28.1c0-21.3,19-38.6,42.4-38.6H396c4.4,0,8,3.6,8,8v16c0,4.4-3.6,8-8,8h-12.3
	c-6,0-10.4,3.5-10.4,6.6c0,1.3,0.8,2.7,2.1,3.8l21.9,18.8c8.5,7.2,13.3,17.5,13.3,28.1C410.7,286.7,391.7,304,368.3,304L368.3,304z"
	/>
</svg>
